<mxfile host="app.diagrams.net" modified="2023-04-29T00:05:46.907Z" agent="Mozilla/5.0 (Windows NT 10.0; Win64; x64) AppleWebKit/537.36 (KHTML, like Gecko) Chrome/112.0.0.0 Safari/537.36" version="21.2.3" etag="APPokDtFHu2hvR0G0acf" type="github">
  <diagram name="第 1 页" id="w6yW9VAewPl-2wKwwao8">
    <mxGraphModel>
      <root>
        <mxCell id="0" />
        <mxCell id="1" parent="0" />
      </root>
    </mxGraphModel>
  </diagram>
</mxfile>
